<?xml version="1.0" standalone="no"?>
<!DOCTYPE svg PUBLIC "-//W3C//DTD SVG 20010904//EN"
 "http://www.w3.org/TR/2001/REC-SVG-20010904/DTD/svg10.dtd">
<svg version="1.0" xmlns="http://www.w3.org/2000/svg"
 width="512.000000pt" height="512.000000pt" viewBox="0 0 512.000000 512.000000"
 preserveAspectRatio="xMidYMid meet">
<metadata>
Created by potrace 1.11, written by Peter Selinger 2001-2013
</metadata>
<g transform="translate(0.000000,512.000000) scale(0.100000,-0.100000)"
fill="#000000" stroke="none">
<path d="M3039 4267 c-18 -12 -107 -117 -197 -232 -90 -116 -167 -211 -171
-213 -5 -2 -13 17 -19 41 -20 79 -76 127 -149 127 -47 0 -192 -42 -228 -66
-35 -23 -58 -70 -58 -119 0 -22 24 -123 52 -225 29 -102 53 -192 54 -200 0 -9
-31 -56 -70 -105 -84 -108 -103 -142 -103 -190 0 -113 84 -168 212 -139 38 9
72 13 75 10 3 -3 50 -163 103 -355 53 -192 105 -361 114 -376 23 -34 74 -65
111 -66 26 0 27 -1 10 -10 -24 -10 -1798 -499 -1814 -499 -6 0 -2 15 9 33 24
38 25 73 5 147 -8 30 -15 56 -15 57 0 1 28 17 62 35 86 44 191 150 225 225 64
143 32 357 -72 471 -91 102 -198 132 -490 138 -115 3 -231 10 -256 15 -62 14
-100 53 -106 111 -7 60 25 104 100 142 75 38 203 47 321 22 129 -27 171 -19
225 38 51 54 37 172 -25 212 -49 33 -155 55 -274 58 l-115 3 -18 63 c-10 35
-26 74 -34 87 -48 73 -181 72 -229 -2 -24 -37 -28 -94 -10 -155 9 -29 16 -58
16 -64 0 -6 -22 -23 -49 -39 -145 -81 -243 -260 -226 -411 16 -142 83 -265
175 -322 91 -55 147 -65 420 -73 270 -8 301 -15 344 -74 63 -85 -15 -195 -164
-233 -87 -22 -268 -14 -358 15 -83 27 -131 27 -172 -1 -51 -35 -71 -68 -72
-120 -1 -52 22 -100 62 -129 44 -33 213 -70 335 -72 l110 -3 17 -64 c21 -77
42 -109 88 -132 22 -12 29 -19 19 -22 -8 -3 -152 -43 -322 -90 -169 -46 -321
-92 -338 -103 -67 -39 -91 -148 -46 -213 37 -55 71 -74 130 -73 35 0 333 78
925 242 480 132 878 241 885 241 6 0 -121 -132 -282 -294 l-295 -295 -4 -58
c-4 -54 -2 -61 25 -90 16 -17 48 -36 71 -42 29 -8 273 -11 824 -9 727 3 785 4
815 21 55 30 81 113 52 170 -6 12 -171 183 -367 380 -197 196 -354 357 -350
357 14 0 2445 671 2486 686 51 19 91 73 98 131 6 45 -27 116 -67 146 -53 38
-97 34 -354 -37 -132 -37 -249 -69 -260 -72 -15 -4 -14 0 8 17 37 29 57 70 57
119 0 22 -43 196 -96 387 -52 190 -92 349 -87 352 4 4 35 15 68 25 104 32 153
107 127 195 -7 20 -24 49 -39 63 -20 18 -224 103 -670 277 -694 271 -698 273
-764 228z m705 -599 c38 -17 51 -43 90 -185 41 -147 43 -173 19 -214 -20 -33
-47 -44 -210 -89 -130 -35 -134 -35 -173 -15 -39 20 -45 34 -86 180 -38 136
-43 179 -25 213 16 31 39 41 181 83 137 41 167 45 204 27z m-514 -165 c25 -23
36 -49 64 -153 49 -184 48 -177 30 -216 -21 -43 -40 -53 -186 -93 -227 -62
-238 -54 -308 224 -39 153 -25 172 160 225 167 48 199 49 240 13z m680 -380
c26 -24 37 -51 72 -175 63 -227 62 -228 -225 -302 -87 -23 -102 -24 -130 -12
-18 7 -38 20 -45 29 -15 18 -91 280 -92 315 0 33 29 78 59 92 48 22 256 78
293 79 28 1 46 -6 68 -26z m-535 -146 c21 -18 35 -52 66 -161 21 -76 39 -154
39 -173 0 -60 -36 -84 -187 -126 -161 -45 -193 -46 -233 -9 -24 22 -36 51 -65
156 -65 232 -61 241 155 302 141 40 189 42 225 11z"/>
</g>
</svg>
